<?xml version="1.0" encoding="UTF-8" standalone="no"?>
<!-- Created with Inkscape (http://www.inkscape.org/) -->

<svg
   xmlns:dc="http://purl.org/dc/elements/1.1/"
   xmlns:cc="http://creativecommons.org/ns#"
   xmlns:rdf="http://www.w3.org/1999/02/22-rdf-syntax-ns#"
   xmlns:svg="http://www.w3.org/2000/svg"
   xmlns="http://www.w3.org/2000/svg"
   xmlns:xlink="http://www.w3.org/1999/xlink"
   xmlns:sodipodi="http://sodipodi.sourceforge.net/DTD/sodipodi-0.dtd"
   xmlns:inkscape="http://www.inkscape.org/namespaces/inkscape"
   width="600"
   height="199.41692"
   id="svg2424"
   sodipodi:version="0.32"
   inkscape:version="0.47 r22583"
   version="1.0"
   sodipodi:docname="archlinux-official-light.svg"
   inkscape:output_extension="org.inkscape.output.svg.inkscape"
   inkscape:export-filename="/home/thayer/archlinux-logo-contest/archer-full-detail.png"
   inkscape:export-xdpi="90"
   inkscape:export-ydpi="90">
  <defs
     id="defs2426">
    <inkscape:perspective
       sodipodi:type="inkscape:persp3d"
       inkscape:vp_x="0 : 99.708458 : 1"
       inkscape:vp_y="0 : 1000 : 0"
       inkscape:vp_z="600 : 99.708458 : 1"
       inkscape:persp3d-origin="300 : 66.472305 : 1"
       id="perspective37" />
    <linearGradient
       gradientUnits="userSpaceOnUse"
       id="path1082_2_"
       y2="129.3468"
       x2="112.49853"
       y1="6.1372099"
       x1="112.49854"
       gradientTransform="translate(287,-83)">
      <stop
         id="stop193"
         offset="0"
         style="stop-color:#ffffff;stop-opacity:0" />
      <stop
         id="stop195"
         offset="1"
         style="stop-color:#ffffff;stop-opacity:0.27450982;" />
      <midPointStop
         id="midPointStop197"
         style="stop-color:#FFFFFF"
         offset="0" />
      <midPointStop
         id="midPointStop199"
         style="stop-color:#FFFFFF"
         offset="0.5" />
      <midPointStop
         id="midPointStop201"
         style="stop-color:#000000"
         offset="1" />
    </linearGradient>
    <linearGradient
       inkscape:collect="always"
       xlink:href="#path1082_2_"
       id="linearGradient2544"
       gradientUnits="userSpaceOnUse"
       gradientTransform="matrix(-0.3937741,0,0,0.393752,357.51969,122.00151)"
       x1="541.33502"
       y1="104.50665"
       x2="606.91248"
       y2="303.14029" />
    <linearGradient
       id="linearGradient3388">
      <stop
         style="stop-color:#000000;stop-opacity:0;"
         offset="0"
         id="stop3390" />
      <stop
         style="stop-color:#000000;stop-opacity:0.37113401;"
         offset="1"
         id="stop3392" />
    </linearGradient>
    <linearGradient
       inkscape:collect="always"
       xlink:href="#linearGradient3388"
       id="linearGradient4416"
       gradientUnits="userSpaceOnUse"
       gradientTransform="matrix(0.749107,0,0,0.749107,-35.459862,91.44108)"
       x1="490.72305"
       y1="237.72447"
       x2="490.72305"
       y2="183.9644" />
  </defs>
  <sodipodi:namedview
     id="base"
     pagecolor="#ffffff"
     bordercolor="#666666"
     borderopacity="1.0"
     gridtolerance="10000"
     guidetolerance="10"
     objecttolerance="10"
     inkscape:pageopacity="0.0"
     inkscape:pageshadow="2"
     inkscape:zoom="1"
     inkscape:cx="302.48971"
     inkscape:cy="99.708458"
     inkscape:document-units="px"
     inkscape:current-layer="g2424"
     inkscape:window-width="1020"
     inkscape:window-height="582"
     inkscape:window-x="0"
     inkscape:window-y="14"
     showgrid="false"
     inkscape:window-maximized="0" />
  <metadata
     id="metadata2429">
    <rdf:RDF>
      <cc:Work
         rdf:about="">
        <dc:format>image/svg+xml</dc:format>
        <dc:type
           rdf:resource="http://purl.org/dc/dcmitype/StillImage" />
      </cc:Work>
    </rdf:RDF>
  </metadata>
  <g
     inkscape:label="Layer 1"
     inkscape:groupmode="layer"
     id="layer1"
     transform="translate(-34.777313,-129.80241)">
    <g
       id="g2424"
       transform="matrix(0.8746356,0,0,0.8746356,14.730518,23.408954)">
      <g
         style="fill:#ffffff;fill-opacity:1"
         transform="matrix(0.6378586,0,0,0.6378586,36.486487,2.17139)"
         id="g2809">
        <path
           style="fill:#ffffff;fill-opacity:1;fill-rule:evenodd;stroke:none;stroke-width:0.50000000000000000;stroke-miterlimit:4;stroke-dasharray:none;stroke-opacity:1"
           d="M 339.96875,309.09375 C 325.49734,309.06987 313.48755,312.03742 308.84375,313.65625 L 304.0625,339.46875 C 304.05087,339.56384 327.85793,333.1202 338.34375,333.5 C 355.70533,334.12381 357.30323,340.13541 357,348.25 C 357.29595,348.72462 352.52067,340.91808 337.5,340.65625 C 318.55039,340.32938 291.80716,347.36572 291.84375,375.96875 C 291.33289,408.14287 315.87736,417.60757 332.59375,417.78125 C 347.62196,417.50761 354.67145,412.08989 358.53125,409.1875 C 363.60249,403.88514 369.40433,398.55303 374.9375,392.15625 C 369.70183,401.66903 365.16278,408.24605 360.4375,413.28125 L 360.4375,417.53125 L 383.28125,413.6875 L 383.4375,351.59375 C 383.20609,342.80536 388.47873,309.17548 339.96875,309.09375 z M 336.6875,363.15625 C 346.15639,363.2862 357.01538,367.95333 357.03125,379.1875 C 357.08027,389.40571 344.2312,394.89933 335.875,394.8125 C 327.51524,394.72573 316.42407,388.24268 316.375,378.28125 C 316.53516,369.37681 326.83453,362.92707 336.6875,363.15625 z "
           id="path2284" />
        <path
           inkscape:export-ydpi="90"
           inkscape:export-xdpi="90"
           inkscape:export-filename="/home/thayer/linux/artwork-arch/sample-hangar2.png"
           id="path2286"
           d="M 398.50106,314.83145 L 398.34601,417.65838 L 424.95814,412.53114 L 425.003,354.22957 C 425.00936,345.54868 437.40854,335.40506 452.9657,335.5667 C 456.26772,329.59262 462.4744,314.32451 463.98658,310.85156 C 429.23009,310.76831 428.78761,320.84149 422.7426,325.79673 C 422.67951,316.34388 422.72126,310.66932 422.72126,310.66932 L 398.50106,314.83145 z "
           style="fill:#ffffff;fill-opacity:1;fill-rule:evenodd;stroke:none;stroke-width:0.50000000000000000;stroke-miterlimit:4;stroke-dasharray:none;stroke-opacity:1" />
        <path
           sodipodi:nodetypes="ccccccccccc"
           inkscape:export-ydpi="90"
           inkscape:export-xdpi="90"
           inkscape:export-filename="/home/thayer/linux/artwork-arch/sample-hangar2.png"
           id="path2288"
           d="M 548.2688,328.33058 C 548.01184,328.2099 534.38942,312.39639 507.00242,312.27168 C 481.34993,311.8453 452.57664,321.79063 452.11611,364.80448 C 452.34068,402.623 479.75631,417.40257 507.14751,417.69075 C 536.46043,417.99526 548.12405,399.36128 548.82366,398.89951 C 545.32604,395.86741 532.22574,382.88641 532.22574,382.88641 C 532.22574,382.88641 524.04338,394.53743 508.16772,394.68554 C 492.2883,394.83674 478.48527,382.41229 478.28967,365.07649 C 478.08618,347.74054 490.97848,338.34828 508.28692,337.58962 C 523.27158,337.58641 531.91662,347.26296 531.91662,347.26296 L 548.2688,328.33058 z "
           style="fill:#ffffff;fill-opacity:1;fill-rule:evenodd;stroke:none;stroke-width:0.50000000000000000;stroke-miterlimit:4;stroke-dasharray:none;stroke-opacity:1" />
        <path
           style="fill:#ffffff;fill-opacity:1;fill-rule:evenodd;stroke:none;stroke-width:0.50000000000000000;stroke-miterlimit:4;stroke-dasharray:none;stroke-opacity:1"
           d="M 581.8125,278.84375 L 556.6875,284.75 L 556.875,418.6875 L 581.625,414.21875 L 581.90625,351.1875 C 581.95916,344.57823 591.46752,334.42834 607.34375,334.75 C 622.52348,334.90775 625.91611,344.86767 625.875,346.125 L 626.3125,419.09375 L 650.71875,414.78125 L 650.8125,337.40625 C 650.9732,329.96086 634.50417,314.23671 608.03125,314.125 C 595.45038,314.14524 588.4831,316.99325 584.9375,319.09375 C 578.87094,323.7794 571.9377,328.26918 565.125,334 C 571.42309,325.90901 576.71051,320.31484 581.875,316.15625 L 581.8125,278.84375 z "
           id="path2290" />
      </g>
      <g
         transform="matrix(0.9443373,0,1.3363449e-2,0.9443373,78.345657,-412.48879)"
         style="fill:#1793d1;fill-opacity:1;stroke:none;stroke-width:0.5;stroke-miterlimit:4;stroke-dasharray:none;stroke-opacity:1"
         id="g5326">
        <path
           inkscape:export-ydpi="90"
           inkscape:export-xdpi="90"
           inkscape:export-filename="/home/thayer/linux/artwork-arch/sample-hangar2.png"
           id="path2292"
           d="M 400.67581,629.79609 L 408.35748,627.88034 L 407.42897,719.08826 L 399.63323,720.41252 L 400.67581,629.79609 z "
           style="fill:#1793d1;fill-opacity:1;fill-rule:evenodd;stroke:none;stroke-width:0.5;stroke-miterlimit:4;stroke-dasharray:none;stroke-opacity:1" />
        <path
           inkscape:export-ydpi="90"
           inkscape:export-xdpi="90"
           inkscape:export-filename="/home/thayer/linux/artwork-arch/sample-hangar2.png"
           id="path2294"
           d="M 421.10266,657.01757 L 427.8533,654.03087 L 426.98522,719.43018 L 420.48743,720.76933 L 421.10266,657.01757 z M 419.84207,633.43441 L 425.31374,629.01908 L 429.73635,634.0186 L 424.26077,638.55081 L 419.84207,633.43441 z "
           style="fill:#1793d1;fill-opacity:1;fill-rule:evenodd;stroke:none;stroke-width:0.5;stroke-miterlimit:4;stroke-dasharray:none;stroke-opacity:1" />
        <path
           inkscape:export-ydpi="90"
           inkscape:export-xdpi="90"
           inkscape:export-filename="/home/thayer/linux/artwork-arch/sample-hangar2.png"
           id="path2296"
           d="M 440.44273,655.82614 L 448.12028,654.26413 L 447.96298,667.93633 C 447.95623,668.5235 452.38238,652.66269 472.648,653.01539 C 492.32786,653.12491 495.33201,668.36173 495.1771,671.77776 L 494.73951,719.85606 L 488.00907,721.31237 L 488.64223,673.82337 C 488.73965,672.43653 485.76079,660.70896 471.85317,660.66583 C 457.94808,660.62546 448.16953,670.76631 448.09496,677.2452 L 447.61369,719.07997 L 439.80981,721.11127 L 440.44273,655.82614 z "
           style="fill:#1793d1;fill-opacity:1;fill-rule:evenodd;stroke:none;stroke-width:0.5;stroke-miterlimit:4;stroke-dasharray:none;stroke-opacity:1" />
        <path
           inkscape:export-ydpi="90"
           inkscape:export-xdpi="90"
           inkscape:export-filename="/home/thayer/linux/artwork-arch/sample-hangar2.png"
           id="path2298"
           d="M 561.53301,720.20203 L 553.85541,721.76389 L 554.01278,708.09191 C 554.01954,707.50449 549.59077,723.36552 529.32774,723.01277 C 509.64791,722.90333 506.64375,707.66651 506.79866,704.25048 L 507.23623,656.17187 L 515.39297,654.52961 L 514.84653,702.01949 C 514.83161,703.31631 516.21498,715.31928 530.12257,715.36209 C 544.02768,715.40254 553.88879,706.9885 554.1371,694.31793 L 554.56815,656.84891 L 562.16595,654.91696 L 561.53301,720.20203 z "
           style="fill:#1793d1;fill-opacity:1;fill-rule:evenodd;stroke:none;stroke-width:0.5;stroke-miterlimit:4;stroke-dasharray:none;stroke-opacity:1" />
        <path
           inkscape:export-ydpi="90"
           inkscape:export-xdpi="90"
           inkscape:export-filename="/home/thayer/linux/artwork-arch/sample-hangar2.png"
           id="path2300"
           d="M 577.45461,655.28678 L 572.02746,659.48695 L 592.2264,686.42023 L 569.83548,717.53645 L 575.47047,721.76245 L 596.51412,692.86575 L 617.39202,722.44734 L 622.71929,718.24631 L 600.34351,686.61765 L 618.91314,661.04015 L 613.38121,656.30586 L 596.46012,679.97364 L 577.45461,655.28678 z "
           style="fill:#1793d1;fill-opacity:1;fill-rule:evenodd;stroke:none;stroke-width:0.5;stroke-miterlimit:4;stroke-dasharray:none;stroke-opacity:1" />
      </g>
      <g
         style="font-size:16.93816185px;font-style:normal;font-weight:normal;text-align:end;text-anchor:end;fill:#ffffff;fill-opacity:1;stroke:none;font-family:Liberation Sans"
         id="text4418">
        <path
           d="m 361.16011,293.20715 4.65634,-12.12468 1.72855,0 4.96236,12.12468 -1.8278,0 -1.41427,-3.67214 -5.06987,0 -1.33157,3.67214 -1.70374,0 m 3.49846,-4.97889 4.11048,0 -1.2654,-3.35786 c -0.38596,-1.02003 -0.67268,-1.85811 -0.86014,-2.51426 -0.15439,0.77745 -0.37218,1.54937 -0.65338,2.31577 l -1.33156,3.55635"
           style=""
           id="path2843" />
        <path
           d="m 376.79152,290.58538 1.47217,-0.23158 c 0.0827,0.58997 0.31152,1.0421 0.68645,1.35638 0.38045,0.31428 0.90976,0.47142 1.58796,0.47142 0.68369,0 1.19096,-0.13784 1.52178,-0.41353 0.33082,-0.2812 0.49623,-0.60926 0.49624,-0.9842 -1e-5,-0.33633 -0.14612,-0.60099 -0.43834,-0.79397 -0.20401,-0.13233 -0.71128,-0.3005 -1.52179,-0.50451 -1.09172,-0.27568 -1.84986,-0.51277 -2.27441,-0.71127 -0.41905,-0.204 -0.73884,-0.48245 -0.95939,-0.83533 -0.21503,-0.35839 -0.32255,-0.75262 -0.32255,-1.18269 0,-0.39147 0.0882,-0.75262 0.26466,-1.08345 0.18195,-0.33633 0.42731,-0.61477 0.73608,-0.83533 0.23157,-0.17092 0.54586,-0.31427 0.94285,-0.43007 0.4025,-0.12129 0.83257,-0.18195 1.29021,-0.18195 0.68921,0 1.29296,0.0992 1.81126,0.29774 0.52379,0.1985 0.90975,0.46867 1.15788,0.81051 0.24811,0.33635 0.41903,0.78847 0.51277,1.35638 l -1.45562,0.19849 c -0.0662,-0.45211 -0.25915,-0.80499 -0.57894,-1.05863 -0.31429,-0.25362 -0.7609,-0.38044 -1.33983,-0.38045 -0.68371,10e-6 -1.17167,0.11304 -1.4639,0.3391 -0.29223,0.22607 -0.43834,0.49073 -0.43834,0.79397 0,0.19299 0.0607,0.36667 0.18195,0.52105 0.1213,0.1599 0.31153,0.29223 0.57067,0.39699 0.14887,0.0551 0.58721,0.18196 1.31503,0.38045 1.05311,0.2812 1.78644,0.51278 2.19997,0.69472 0.41904,0.17645 0.74711,0.43559 0.9842,0.77744 0.23709,0.34185 0.35563,0.76641 0.35564,1.27367 -1e-5,0.49624 -0.14612,0.9649 -0.43834,1.406 -0.28672,0.43558 -0.70301,0.77468 -1.24886,1.01728 -0.54587,0.23709 -1.1634,0.35564 -1.85261,0.35564 -1.14135,0 -2.01251,-0.23709 -2.61351,-0.71127 -0.59548,-0.47418 -0.97593,-1.17718 -1.14134,-2.109"
           style=""
           id="path2845" />
        <path
           d="m 385.86436,282.79448 0,-1.71201 1.4887,0 0,1.71201 -1.4887,0 m 0,10.41267 0,-8.78336 1.4887,0 0,8.78336 -1.4887,0"
           style=""
           id="path2847" />
        <path
           d="m 389.62747,293.20715 0,-8.78336 1.33157,0 0,1.23232 c 0.27568,-0.43006 0.64234,-0.77467 1.09998,-1.03383 0.45764,-0.26465 0.97869,-0.39698 1.56315,-0.39698 0.65061,0 1.18268,0.13509 1.59622,0.40525 0.41903,0.27019 0.71402,0.64788 0.88495,1.13308 0.69472,-1.02555 1.59897,-1.53833 2.71275,-1.53833 0.87116,0 1.54108,0.24261 2.00976,0.72781 0.46865,0.4797 0.70298,1.22129 0.703,2.22479 l 0,6.02925 -1.48044,0 0,-5.53302 c -10e-6,-0.59548 -0.0496,-1.02279 -0.14887,-1.28194 -0.0937,-0.26465 -0.26743,-0.47693 -0.52105,-0.63684 -0.25364,-0.15989 -0.55138,-0.23983 -0.89322,-0.23984 -0.61755,10e-6 -1.13032,0.20677 -1.53833,0.62029 -0.40802,0.40802 -0.61203,1.06416 -0.61202,1.9684 l 0,5.10295 -1.48871,0 0,-5.7067 c 0,-0.66164 -0.12131,-1.15788 -0.3639,-1.48871 -0.24261,-0.33081 -0.6396,-0.49622 -1.19097,-0.49623 -0.41905,10e-6 -0.80776,0.11028 -1.16615,0.33082 -0.35288,0.22056 -0.60927,0.54311 -0.76917,0.96766 -0.1599,0.42456 -0.23985,1.03659 -0.23984,1.83607 l 0,4.55709 -1.48871,0"
           style=""
           id="path2849" />
        <path
           d="m 403.78672,296.57328 0,-12.14949 1.35637,0 0,1.14134 c 0.3198,-0.4466 0.68094,-0.78018 1.08345,-1.00074 0.4025,-0.22605 0.89046,-0.33909 1.46389,-0.33909 0.74986,0 1.41151,0.19299 1.98494,0.57894 0.57342,0.38597 1.00625,0.93182 1.29849,1.63757 0.29222,0.70025 0.43833,1.46942 0.43834,2.3075 -10e-6,0.89874 -0.16267,1.70925 -0.48797,2.43155 -0.3198,0.71679 -0.78847,1.26816 -1.406,1.65412 -0.61203,0.38044 -1.25713,0.57067 -1.93531,0.57067 -0.49624,0 -0.94286,-0.10476 -1.33984,-0.31428 -0.39148,-0.20953 -0.71403,-0.47418 -0.96766,-0.79398 l 0,4.27589 -1.4887,0 m 1.3481,-7.70818 c 0,1.13031 0.22882,1.96564 0.68646,2.50598 0.45764,0.54035 1.01177,0.81052 1.66239,0.81052 0.66164,0 1.2268,-0.27844 1.69547,-0.83533 0.47417,-0.5624 0.71126,-1.43081 0.71127,-2.60523 -10e-6,-1.11928 -0.23158,-1.95737 -0.69473,-2.51426 -0.45764,-0.55688 -1.00626,-0.83532 -1.64585,-0.83533 -0.63408,10e-6 -1.19648,0.29775 -1.6872,0.89322 -0.48521,0.58998 -0.72781,1.45012 -0.72781,2.58043"
           style=""
           id="path2851" />
        <path
           d="m 413.1821,293.20715 0,-12.12468 1.48871,0 0,12.12468 -1.48871,0"
           style=""
           id="path2853" />
        <path
           d="m 422.99929,290.37861 1.53833,0.19023 c -0.24261,0.89873 -0.69198,1.59622 -1.34811,2.09245 -0.65614,0.49624 -1.49422,0.74436 -2.51426,0.74436 -1.2847,0 -2.30474,-0.39423 -3.06011,-1.1827 -0.74987,-0.79397 -1.1248,-1.90499 -1.1248,-3.33304 0,-1.47768 0.38044,-2.62453 1.14134,-3.44057 0.76089,-0.81602 1.74785,-1.22404 2.96087,-1.22404 1.17442,0 2.1338,0.39975 2.87816,1.19923 0.74435,0.7995 1.11652,1.9243 1.11653,3.3744 -1e-5,0.0882 -0.003,0.22055 -0.008,0.39699 l -6.5503,0 c 0.0551,0.9649 0.32806,1.70374 0.81878,2.21652 0.49072,0.51277 1.10275,0.76916 1.83607,0.76916 0.54586,0 1.01177,-0.14336 1.39773,-0.43007 0.38596,-0.28671 0.69197,-0.74435 0.91804,-1.37292 m -4.88792,-2.40674 4.90446,0 c -0.0662,-0.73883 -0.25364,-1.29296 -0.5624,-1.66239 -0.47419,-0.57342 -1.08897,-0.86013 -1.84434,-0.86014 -0.68371,10e-6 -1.25989,0.22883 -1.72855,0.68646 -0.46316,0.45765 -0.71955,1.06967 -0.76917,1.83607"
           style=""
           id="path2855" />
        <path
           d="m 426.80376,293.20715 0,-1.69547 1.69547,0 0,1.69547 c -1e-5,0.62305 -0.11028,1.1248 -0.33083,1.50525 -0.22055,0.38596 -0.57067,0.6837 -1.05036,0.89322 l -0.41353,-0.63683 c 0.31428,-0.13785 0.54586,-0.34185 0.69473,-0.61203 0.14887,-0.26465 0.23157,-0.64786 0.24812,-1.14961 l -0.8436,0"
           style=""
           id="path2857" />
        <path
           d="m 435.77734,293.20715 0,-12.12468 1.48871,0 0,12.12468 -1.48871,0"
           style=""
           id="path2859" />
        <path
           d="m 439.59009,282.79448 0,-1.71201 1.4887,0 0,1.71201 -1.4887,0 m 0,10.41267 0,-8.78336 1.4887,0 0,8.78336 -1.4887,0"
           style=""
           id="path2861" />
        <path
           d="m 443.08027,293.93496 1.44736,0.21504 c 0.0606,0.44661 0.22881,0.77192 0.5045,0.97593 0.36942,0.27568 0.87392,0.41353 1.51352,0.41353 0.68921,0 1.22128,-0.13785 1.59622,-0.41353 0.37493,-0.27569 0.62856,-0.66165 0.7609,-1.15788 0.0772,-0.30326 0.11302,-0.94009 0.10751,-1.91051 -0.65062,0.76641 -1.46114,1.14961 -2.43155,1.14961 -1.20751,0 -2.14208,-0.43558 -2.80373,-1.30675 -0.66165,-0.87117 -0.99247,-1.91602 -0.99247,-3.13455 0,-0.83808 0.15163,-1.61 0.45488,-2.31577 0.30326,-0.71126 0.7416,-1.25987 1.31503,-1.64584 0.57894,-0.38595 1.25712,-0.57894 2.03456,-0.57894 1.03658,0 1.8912,0.41905 2.56388,1.25713 l 0,-1.05864 1.37292,0 0,7.5924 c -10e-6,1.3674 -0.14061,2.33506 -0.4218,2.90297 -0.27569,0.57343 -0.71679,1.02555 -1.32329,1.35638 -0.601,0.33082 -1.3426,0.49623 -2.22479,0.49624 -1.04761,-10e-6 -1.89397,-0.2371 -2.53907,-0.71127 -0.64511,-0.46867 -0.95663,-1.17719 -0.93458,-2.12555 m 1.23232,-5.27663 c 0,1.15237 0.22882,1.99321 0.68646,2.52253 0.45764,0.52932 1.03106,0.79398 1.72028,0.79398 0.6837,0 1.25713,-0.2619 1.72028,-0.78571 0.46315,-0.52931 0.69473,-1.35637 0.69473,-2.48118 0,-1.07517 -0.23985,-1.88568 -0.71954,-2.43155 -0.47418,-0.54585 -1.04761,-0.81878 -1.72028,-0.81879 -0.66165,1e-5 -1.22405,0.27018 -1.6872,0.81052 -0.46315,0.53484 -0.69473,1.33157 -0.69473,2.3902"
           style=""
           id="path2863" />
        <path
           d="m 452.78167,293.20715 0,-12.12468 1.48871,0 0,4.35033 c 0.69472,-0.80499 1.5714,-1.2075 2.63004,-1.2075 0.65062,0 1.21577,0.12958 1.69547,0.38871 0.47969,0.25364 0.82154,0.60652 1.02555,1.05864 0.20952,0.45213 0.31428,1.10826 0.31429,1.9684 l 0,5.5661 -1.48871,0 0,-5.5661 c -1e-5,-0.74435 -0.16266,-1.28469 -0.48796,-1.62104 -0.3198,-0.34184 -0.77469,-0.51277 -1.36465,-0.51277 -0.4411,0 -0.85739,0.11579 -1.24886,0.34736 -0.38596,0.22607 -0.66165,0.53484 -0.82706,0.92631 -0.16541,0.39148 -0.24812,0.93182 -0.24811,1.62103 l 0,4.80521 -1.48871,0"
           style=""
           id="path2865" />
        <path
           d="m 465.46048,291.87559 0.21504,1.31502 c -0.41905,0.0882 -0.79398,0.13233 -1.1248,0.13233 -0.54035,0 -0.95939,-0.0855 -1.25713,-0.25639 -0.29774,-0.17092 -0.50726,-0.39423 -0.62856,-0.66991 -0.12131,-0.2812 -0.18196,-0.86841 -0.18196,-1.76164 l 0,-5.05333 -1.09171,0 0,-1.15788 1.09171,0 0,-2.17516 1.48044,-0.89323 0,3.06839 1.49697,0 0,1.15788 -1.49697,0 0,5.13604 c 0,0.42456 0.0248,0.69748 0.0744,0.81878 0.0551,0.12131 0.1406,0.2178 0.25639,0.28948 0.1213,0.0717 0.29223,0.10751 0.51278,0.10751 0.16541,0 0.3832,-0.0193 0.65337,-0.0579"
           style=""
           id="path2867" />
        <path
           d="m 468.52887,293.20715 -2.68794,-8.78336 1.53833,0 1.39773,5.06987 0.52105,1.88569 c 0.022,-0.0937 0.17368,-0.69748 0.45488,-1.81125 l 1.39773,-5.14431 1.53006,0 1.31502,5.09468 0.43834,1.67893 0.50451,-1.69547 1.50524,-5.07814 1.44736,0 -2.74584,8.78336 -1.5466,0 -1.39773,-5.26009 -0.33909,-1.49698 -1.77818,6.75707 -1.55487,0"
           style=""
           id="path2869" />
        <path
           d="m 485.1941,290.37861 1.53833,0.19023 c -0.24262,0.89873 -0.69198,1.59622 -1.34811,2.09245 -0.65614,0.49624 -1.49422,0.74436 -2.51426,0.74436 -1.2847,0 -2.30474,-0.39423 -3.06011,-1.1827 -0.74987,-0.79397 -1.1248,-1.90499 -1.1248,-3.33304 0,-1.47768 0.38044,-2.62453 1.14134,-3.44057 0.76089,-0.81602 1.74784,-1.22404 2.96087,-1.22404 1.17441,0 2.1338,0.39975 2.87816,1.19923 0.74435,0.7995 1.11652,1.9243 1.11653,3.3744 -1e-5,0.0882 -0.003,0.22055 -0.008,0.39699 l -6.5503,0 c 0.0551,0.9649 0.32806,1.70374 0.81878,2.21652 0.49072,0.51277 1.10274,0.76916 1.83607,0.76916 0.54586,0 1.01177,-0.14336 1.39773,-0.43007 0.38596,-0.28671 0.69197,-0.74435 0.91804,-1.37292 m -4.88792,-2.40674 4.90446,0 c -0.0662,-0.73883 -0.25364,-1.29296 -0.5624,-1.66239 -0.47419,-0.57342 -1.08897,-0.86013 -1.84434,-0.86014 -0.68371,10e-6 -1.25989,0.22883 -1.72855,0.68646 -0.46316,0.45765 -0.71955,1.06967 -0.76917,1.83607"
           style=""
           id="path2871" />
        <path
           d="m 488.61813,282.79448 0,-1.71201 1.4887,0 0,1.71201 -1.4887,0 m 0,10.41267 0,-8.78336 1.4887,0 0,8.78336 -1.4887,0"
           style=""
           id="path2873" />
        <path
           d="m 492.10831,293.93496 1.44735,0.21504 c 0.0607,0.44661 0.22882,0.77192 0.50451,0.97593 0.36942,0.27568 0.87392,0.41353 1.51352,0.41353 0.68921,0 1.22128,-0.13785 1.59622,-0.41353 0.37493,-0.27569 0.62856,-0.66165 0.76089,-1.15788 0.0772,-0.30326 0.11303,-0.94009 0.10752,-1.91051 -0.65062,0.76641 -1.46114,1.14961 -2.43155,1.14961 -1.20751,0 -2.14208,-0.43558 -2.80373,-1.30675 -0.66165,-0.87117 -0.99247,-1.91602 -0.99247,-3.13455 0,-0.83808 0.15163,-1.61 0.45488,-2.31577 0.30326,-0.71126 0.7416,-1.25987 1.31503,-1.64584 0.57893,-0.38595 1.25712,-0.57894 2.03456,-0.57894 1.03658,0 1.8912,0.41905 2.56388,1.25713 l 0,-1.05864 1.37292,0 0,7.5924 c -1e-5,1.3674 -0.14061,2.33506 -0.4218,2.90297 -0.27569,0.57343 -0.71679,1.02555 -1.32329,1.35638 -0.60101,0.33082 -1.3426,0.49623 -2.22479,0.49624 -1.04761,-10e-6 -1.89397,-0.2371 -2.53907,-0.71127 -0.64511,-0.46867 -0.95663,-1.17719 -0.93458,-2.12555 m 1.23232,-5.27663 c 0,1.15237 0.22882,1.99321 0.68646,2.52253 0.45763,0.52932 1.03106,0.79398 1.72028,0.79398 0.6837,0 1.25712,-0.2619 1.72028,-0.78571 0.46315,-0.52931 0.69472,-1.35637 0.69473,-2.48118 -10e-6,-1.07517 -0.23985,-1.88568 -0.71954,-2.43155 -0.47419,-0.54585 -1.04761,-0.81878 -1.72028,-0.81879 -0.66165,1e-5 -1.22405,0.27018 -1.6872,0.81052 -0.46316,0.53484 -0.69473,1.33157 -0.69473,2.3902"
           style=""
           id="path2875" />
        <path
           d="m 501.80971,293.20715 0,-12.12468 1.4887,0 0,4.35033 c 0.69473,-0.80499 1.57141,-1.2075 2.63005,-1.2075 0.65061,0 1.21577,0.12958 1.69547,0.38871 0.47969,0.25364 0.82154,0.60652 1.02555,1.05864 0.20952,0.45213 0.31428,1.10826 0.31429,1.9684 l 0,5.5661 -1.48871,0 0,-5.5661 c -10e-6,-0.74435 -0.16266,-1.28469 -0.48796,-1.62104 -0.31981,-0.34184 -0.77469,-0.51277 -1.36465,-0.51277 -0.4411,0 -0.85739,0.11579 -1.24886,0.34736 -0.38596,0.22607 -0.66165,0.53484 -0.82706,0.92631 -0.16541,0.39148 -0.24812,0.93182 -0.24812,1.62103 l 0,4.80521 -1.4887,0"
           style=""
           id="path2877" />
        <path
           d="m 514.48852,291.87559 0.21503,1.31502 c -0.41905,0.0882 -0.79398,0.13233 -1.1248,0.13233 -0.54035,0 -0.95939,-0.0855 -1.25713,-0.25639 -0.29774,-0.17092 -0.50726,-0.39423 -0.62856,-0.66991 -0.12131,-0.2812 -0.18196,-0.86841 -0.18196,-1.76164 l 0,-5.05333 -1.09171,0 0,-1.15788 1.09171,0 0,-2.17516 1.48044,-0.89323 0,3.06839 1.49698,0 0,1.15788 -1.49698,0 0,5.13604 c 0,0.42456 0.0248,0.69748 0.0744,0.81878 0.0551,0.12131 0.1406,0.2178 0.25639,0.28948 0.1213,0.0717 0.29223,0.10751 0.51278,0.10751 0.16541,0 0.3832,-0.0193 0.65338,-0.0579"
           style=""
           id="path2879" />
        <path
           d="m 520.36063,293.93496 1.44735,0.21504 c 0.0607,0.44661 0.22882,0.77192 0.50451,0.97593 0.36942,0.27568 0.87392,0.41353 1.51352,0.41353 0.68921,0 1.22128,-0.13785 1.59622,-0.41353 0.37493,-0.27569 0.62856,-0.66165 0.76089,-1.15788 0.0772,-0.30326 0.11303,-0.94009 0.10752,-1.91051 -0.65062,0.76641 -1.46114,1.14961 -2.43155,1.14961 -1.20751,0 -2.14209,-0.43558 -2.80373,-1.30675 -0.66165,-0.87117 -0.99247,-1.91602 -0.99247,-3.13455 0,-0.83808 0.15163,-1.61 0.45488,-2.31577 0.30326,-0.71126 0.7416,-1.25987 1.31503,-1.64584 0.57893,-0.38595 1.25712,-0.57894 2.03456,-0.57894 1.03657,0 1.8912,0.41905 2.56388,1.25713 l 0,-1.05864 1.37292,0 0,7.5924 c -10e-6,1.3674 -0.14061,2.33506 -0.4218,2.90297 -0.27569,0.57343 -0.71679,1.02555 -1.32329,1.35638 -0.60101,0.33082 -1.3426,0.49623 -2.22479,0.49624 -1.04761,-10e-6 -1.89397,-0.2371 -2.53907,-0.71127 -0.64511,-0.46867 -0.95663,-1.17719 -0.93458,-2.12555 m 1.23232,-5.27663 c 0,1.15237 0.22882,1.99321 0.68646,2.52253 0.45763,0.52932 1.03106,0.79398 1.72028,0.79398 0.6837,0 1.25712,-0.2619 1.72028,-0.78571 0.46315,-0.52931 0.69472,-1.35637 0.69473,-2.48118 -1e-5,-1.07517 -0.23985,-1.88568 -0.71954,-2.43155 -0.47419,-0.54585 -1.04761,-0.81878 -1.72028,-0.81879 -0.66165,1e-5 -1.22405,0.27018 -1.6872,0.81052 -0.46316,0.53484 -0.69473,1.33157 -0.69473,2.3902"
           style=""
           id="path2881" />
        <path
           d="m 530.06203,293.20715 0,-8.78336 1.33983,0 0,1.24886 c 0.6451,-0.96489 1.57692,-1.44735 2.79546,-1.44735 0.52931,0 1.01452,0.0965 1.45562,0.28947 0.44661,0.18747 0.78019,0.43559 1.00074,0.74435 0.22055,0.30878 0.37493,0.67544 0.46316,1.09999 0.0551,0.27569 0.0827,0.75814 0.0827,1.44735 l 0,5.40069 -1.4887,0 0,-5.3428 c -10e-6,-0.6065 -0.0579,-1.05862 -0.17368,-1.35637 -0.1158,-0.30325 -0.32256,-0.5431 -0.6203,-0.71954 -0.29223,-0.18195 -0.63684,-0.27292 -1.03382,-0.27293 -0.63408,10e-6 -1.1827,0.20126 -1.64585,0.60375 -0.45764,0.40251 -0.68646,1.16616 -0.68646,2.29095 l 0,4.79694 -1.4887,0"
           style=""
           id="path2883" />
        <path
           d="m 545.24684,293.20715 0,-1.29021 c -0.68371,0.99247 -1.61277,1.48871 -2.78719,1.48871 -0.51829,0 -1.0035,-0.0992 -1.45562,-0.29774 -0.44662,-0.1985 -0.7802,-0.44661 -1.00074,-0.74436 -0.21504,-0.30325 -0.36667,-0.67267 -0.45489,-1.10826 -0.0607,-0.29222 -0.091,-0.75537 -0.091,-1.38945 l 0,-5.44205 1.4887,0 0,4.87138 c 0,0.77743 0.0303,1.30124 0.091,1.57141 0.0937,0.39147 0.29222,0.70024 0.59548,0.9263 0.30325,0.22055 0.67819,0.33083 1.1248,0.33083 0.44661,0 0.86565,-0.11303 1.25713,-0.3391 0.39147,-0.23157 0.66715,-0.5431 0.82706,-0.93457 0.1654,-0.39699 0.24811,-0.97042 0.24812,-1.72029 l 0,-4.70596 1.4887,0 0,8.78336 -1.33156,0"
           style=""
           id="path2885" />
        <path
           d="m 547.80245,293.41392 3.515,-12.53821 1.19096,0 -3.50673,12.53821 -1.19923,0"
           style=""
           id="path2887" />
        <path
           d="m 553.58359,293.20715 0,-12.12468 1.4887,0 0,12.12468 -1.4887,0"
           style=""
           id="path2889" />
        <path
           d="m 557.39632,282.79448 0,-1.71201 1.4887,0 0,1.71201 -1.4887,0 m 0,10.41267 0,-8.78336 1.4887,0 0,8.78336 -1.4887,0"
           style=""
           id="path2891" />
        <path
           d="m 561.15944,293.20715 0,-8.78336 1.33983,0 0,1.24886 c 0.64511,-0.96489 1.57693,-1.44735 2.79546,-1.44735 0.52931,0 1.01452,0.0965 1.45563,0.28947 0.4466,0.18747 0.78018,0.43559 1.00074,0.74435 0.22054,0.30878 0.37492,0.67544 0.46315,1.09999 0.0551,0.27569 0.0827,0.75814 0.0827,1.44735 l 0,5.40069 -1.48871,0 0,-5.3428 c -1e-5,-0.6065 -0.0579,-1.05862 -0.17368,-1.35637 -0.1158,-0.30325 -0.32256,-0.5431 -0.6203,-0.71954 -0.29223,-0.18195 -0.63684,-0.27292 -1.03382,-0.27293 -0.63408,10e-6 -1.1827,0.20126 -1.64585,0.60375 -0.45764,0.40251 -0.68646,1.16616 -0.68646,2.29095 l 0,4.79694 -1.4887,0"
           style=""
           id="path2893" />
        <path
           d="m 576.34423,293.20715 0,-1.29021 c -0.6837,0.99247 -1.61277,1.48871 -2.78718,1.48871 -0.5183,0 -1.0035,-0.0992 -1.45563,-0.29774 -0.44661,-0.1985 -0.78019,-0.44661 -1.00074,-0.74436 -0.21503,-0.30325 -0.36666,-0.67267 -0.45488,-1.10826 -0.0607,-0.29222 -0.091,-0.75537 -0.091,-1.38945 l 0,-5.44205 1.48871,0 0,4.87138 c 0,0.77743 0.0303,1.30124 0.091,1.57141 0.0937,0.39147 0.29222,0.70024 0.59548,0.9263 0.30325,0.22055 0.67818,0.33083 1.1248,0.33083 0.4466,0 0.86565,-0.11303 1.25713,-0.3391 0.39147,-0.23157 0.66715,-0.5431 0.82706,-0.93457 0.1654,-0.39699 0.24811,-0.97042 0.24811,-1.72029 l 0,-4.70596 1.48871,0 0,8.78336 -1.33157,0"
           style=""
           id="path2895" />
        <path
           d="m 579.0239,293.20715 3.20899,-4.56536 -2.96914,-4.218 1.86088,0 1.34811,2.05938 c 0.25362,0.39148 0.45763,0.71954 0.61202,0.9842 0.2426,-0.3639 0.46591,-0.68646 0.66992,-0.96766 l 1.48043,-2.07592 1.77818,0 -3.03531,4.13529 3.26689,4.64807 -1.8278,0 -1.80299,-2.72929 -0.4797,-0.73608 -2.30749,3.46537 -1.80299,0"
           style=""
           id="path2897" />
        <path
           d="m 598.74926,293.20715 0,-1.10826 c -0.55689,0.87117 -1.37568,1.30676 -2.45636,1.30676 -0.70025,0 -1.34535,-0.19298 -1.93532,-0.57894 -0.58446,-0.38596 -1.03934,-0.92355 -1.36465,-1.61277 -0.31979,-0.69472 -0.47969,-1.49146 -0.47969,-2.3902 0,-0.87667 0.14611,-1.67065 0.43834,-2.38193 0.29223,-0.71677 0.73057,-1.26539 1.31502,-1.64584 0.58446,-0.38044 1.23783,-0.57067 1.96013,-0.57067 0.52932,0 1.00074,0.11304 1.41427,0.33909 0.41353,0.22056 0.74986,0.51003 1.00901,0.86841 l 0,-4.35033 1.48044,0 0,12.12468 -1.38119,0 m -4.70596,-4.38341 c 0,1.12481 0.23709,1.96565 0.71127,2.52253 0.47417,0.55689 1.03382,0.83533 1.67893,0.83533 0.65061,0 1.20198,-0.26466 1.65411,-0.79398 0.45764,-0.53482 0.68646,-1.3481 0.68646,-2.43982 0,-1.20199 -0.23158,-2.08418 -0.69473,-2.64659 -0.46315,-0.56239 -1.03382,-0.84359 -1.71201,-0.8436 -0.66165,1e-5 -1.21578,0.27018 -1.66239,0.81052 -0.4411,0.54035 -0.66164,1.39222 -0.66164,2.55561"
           style=""
           id="path2899" />
        <path
           d="m 602.48756,282.79448 0,-1.71201 1.48871,0 0,1.71201 -1.48871,0 m 0,10.41267 0,-8.78336 1.48871,0 0,8.78336 -1.48871,0"
           style=""
           id="path2901" />
        <path
           d="m 605.65519,290.58538 1.47216,-0.23158 c 0.0827,0.58997 0.31153,1.0421 0.68646,1.35638 0.38045,0.31428 0.90976,0.47142 1.58795,0.47142 0.6837,0 1.19096,-0.13784 1.52179,-0.41353 0.33082,-0.2812 0.49623,-0.60926 0.49624,-0.9842 -1e-5,-0.33633 -0.14612,-0.60099 -0.43834,-0.79397 -0.20402,-0.13233 -0.71128,-0.3005 -1.52179,-0.50451 -1.09172,-0.27568 -1.84986,-0.51277 -2.27441,-0.71127 -0.41905,-0.204 -0.73884,-0.48245 -0.95939,-0.83533 -0.21504,-0.35839 -0.32255,-0.75262 -0.32255,-1.18269 0,-0.39147 0.0882,-0.75262 0.26466,-1.08345 0.18195,-0.33633 0.42731,-0.61477 0.73608,-0.83533 0.23157,-0.17092 0.54585,-0.31427 0.94284,-0.43007 0.4025,-0.12129 0.83257,-0.18195 1.29022,-0.18195 0.68921,0 1.29296,0.0992 1.81125,0.29774 0.5238,0.1985 0.90976,0.46867 1.15789,0.81051 0.24811,0.33635 0.41903,0.78847 0.51277,1.35638 l -1.45562,0.19849 c -0.0662,-0.45211 -0.25915,-0.80499 -0.57894,-1.05863 -0.31429,-0.25362 -0.7609,-0.38044 -1.33984,-0.38045 -0.6837,10e-6 -1.17167,0.11304 -1.46389,0.3391 -0.29223,0.22607 -0.43834,0.49073 -0.43834,0.79397 0,0.19299 0.0607,0.36667 0.18195,0.52105 0.1213,0.1599 0.31152,0.29223 0.57067,0.39699 0.14887,0.0551 0.58721,0.18196 1.31503,0.38045 1.05311,0.2812 1.78644,0.51278 2.19997,0.69472 0.41904,0.17645 0.7471,0.43559 0.9842,0.77744 0.23708,0.34185 0.35563,0.76641 0.35564,1.27367 -10e-6,0.49624 -0.14612,0.9649 -0.43834,1.406 -0.28673,0.43558 -0.70301,0.77468 -1.24886,1.01728 -0.54587,0.23709 -1.1634,0.35564 -1.85261,0.35564 -1.14135,0 -2.01252,-0.23709 -2.61351,-0.71127 -0.59548,-0.47418 -0.97593,-1.17718 -1.14134,-2.109"
           style=""
           id="path2903" />
        <path
           d="m 617.9701,291.87559 0.21503,1.31502 c -0.41904,0.0882 -0.79398,0.13233 -1.1248,0.13233 -0.54034,0 -0.95939,-0.0855 -1.25713,-0.25639 -0.29774,-0.17092 -0.50726,-0.39423 -0.62856,-0.66991 -0.1213,-0.2812 -0.18195,-0.86841 -0.18195,-1.76164 l 0,-5.05333 -1.09172,0 0,-1.15788 1.09172,0 0,-2.17516 1.48043,-0.89323 0,3.06839 1.49698,0 0,1.15788 -1.49698,0 0,5.13604 c 0,0.42456 0.0248,0.69748 0.0744,0.81878 0.0551,0.12131 0.14059,0.2178 0.25638,0.28948 0.1213,0.0717 0.29223,0.10751 0.51278,0.10751 0.16541,0 0.3832,-0.0193 0.65338,-0.0579"
           style=""
           id="path2905" />
        <path
           d="m 619.40091,293.20715 0,-8.78336 1.33983,0 0,1.33156 c 0.34185,-0.62304 0.65613,-1.03381 0.94285,-1.23231 0.29222,-0.19849 0.61202,-0.29774 0.95939,-0.29774 0.50174,0 1.01176,0.1599 1.53006,0.47969 l -0.51278,1.38119 c -0.36391,-0.21503 -0.72782,-0.32255 -1.09172,-0.32255 -0.32531,0 -0.61754,0.0993 -0.87668,0.29774 -0.25915,0.19298 -0.44386,0.46316 -0.55413,0.81051 -0.16541,0.52933 -0.24812,1.10827 -0.24812,1.73683 l 0,4.59844 -1.4887,0"
           style=""
           id="path2907" />
        <path
           d="m 625.08279,282.79448 0,-1.71201 1.48871,0 0,1.71201 -1.48871,0 m 0,10.41267 0,-8.78336 1.48871,0 0,8.78336 -1.48871,0"
           style=""
           id="path2909" />
        <path
           d="m 630.21883,293.20715 -1.38118,0 0,-12.12468 1.4887,0 0,4.32552 c 0.62856,-0.78845 1.43081,-1.18269 2.40674,-1.18269 0.54034,0 1.05036,0.11028 1.53006,0.33082 0.4852,0.21504 0.88219,0.52105 1.19097,0.91803 0.31427,0.39149 0.55963,0.86567 0.73608,1.42255 0.17643,0.55689 0.26465,1.15237 0.26466,1.78644 -1e-5,1.50525 -0.37219,2.66865 -1.11653,3.49019 -0.74436,0.82155 -1.63758,1.23232 -2.67967,1.23232 -1.03659,0 -1.84986,-0.43283 -2.43983,-1.29848 l 0,1.09998 m -0.0165,-4.45784 c 0,1.05312 0.14336,1.81402 0.43007,2.28268 0.46867,0.76641 1.10274,1.14961 1.90224,1.14961 0.65061,0 1.21301,-0.2812 1.6872,-0.8436 0.47417,-0.56791 0.71126,-1.41151 0.71127,-2.5308 -1e-5,-1.14685 -0.22883,-1.9932 -0.68646,-2.53907 -0.45213,-0.54585 -1.00075,-0.81878 -1.64585,-0.81879 -0.65062,10e-6 -1.21302,0.28397 -1.6872,0.85187 -0.47418,0.56241 -0.71127,1.37844 -0.71127,2.4481"
           style=""
           id="path2911" />
        <path
           d="m 644.03071,293.20715 0,-1.29021 c -0.68371,0.99247 -1.61277,1.48871 -2.78719,1.48871 -0.51829,0 -1.0035,-0.0992 -1.45562,-0.29774 -0.44661,-0.1985 -0.78019,-0.44661 -1.00074,-0.74436 -0.21504,-0.30325 -0.36666,-0.67267 -0.45488,-1.10826 -0.0607,-0.29222 -0.091,-0.75537 -0.091,-1.38945 l 0,-5.44205 1.48871,0 0,4.87138 c -10e-6,0.77743 0.0303,1.30124 0.091,1.57141 0.0937,0.39147 0.29223,0.70024 0.59549,0.9263 0.30325,0.22055 0.67818,0.33083 1.1248,0.33083 0.4466,0 0.86564,-0.11303 1.25712,-0.3391 0.39147,-0.23157 0.66716,-0.5431 0.82706,-0.93457 0.16541,-0.39699 0.24811,-0.97042 0.24812,-1.72029 l 0,-4.70596 1.48871,0 0,8.78336 -1.33157,0"
           style=""
           id="path2913" />
        <path
           d="m 650.95319,291.87559 0.21504,1.31502 c -0.41905,0.0882 -0.79398,0.13233 -1.1248,0.13233 -0.54035,0 -0.95939,-0.0855 -1.25713,-0.25639 -0.29775,-0.17092 -0.50727,-0.39423 -0.62857,-0.66991 -0.1213,-0.2812 -0.18195,-0.86841 -0.18195,-1.76164 l 0,-5.05333 -1.09172,0 0,-1.15788 1.09172,0 0,-2.17516 1.48043,-0.89323 0,3.06839 1.49698,0 0,1.15788 -1.49698,0 0,5.13604 c 0,0.42456 0.0248,0.69748 0.0744,0.81878 0.0551,0.12131 0.1406,0.2178 0.25639,0.28948 0.1213,0.0717 0.29222,0.10751 0.51277,0.10751 0.16541,0 0.3832,-0.0193 0.65338,-0.0579"
           style=""
           id="path2915" />
        <path
           d="m 652.40881,282.79448 0,-1.71201 1.48871,0 0,1.71201 -1.48871,0 m 0,10.41267 0,-8.78336 1.48871,0 0,8.78336 -1.48871,0"
           style=""
           id="path2917" />
        <path
           d="m 655.61781,288.81547 c 0,-1.62654 0.45212,-2.83129 1.35637,-3.61424 0.75538,-0.65062 1.67617,-0.97593 2.76238,-0.97593 1.2075,0 2.19445,0.39699 2.96087,1.19096 0.7664,0.78847 1.1496,1.88019 1.14961,3.27515 -10e-6,1.13032 -0.17093,2.02079 -0.51278,2.6714 -0.33634,0.64511 -0.82982,1.14686 -1.48043,1.50525 -0.64511,0.35839 -1.35087,0.53759 -2.11727,0.53759 -1.22957,0 -2.22479,-0.39423 -2.98568,-1.1827 -0.75538,-0.78846 -1.13307,-1.92428 -1.13307,-3.40748 m 1.53006,0 c -10e-6,1.1248 0.24535,1.9684 0.73608,2.5308 0.49072,0.55689 1.10825,0.83533 1.85261,0.83533 0.73883,0 1.35361,-0.2812 1.84434,-0.8436 0.49071,-0.5624 0.73607,-1.41978 0.73608,-2.57215 -10e-6,-1.0862 -0.24812,-1.90774 -0.74435,-2.46464 -0.49073,-0.56239 -1.10275,-0.84359 -1.83607,-0.8436 -0.74436,1e-5 -1.36189,0.27845 -1.85261,0.83533 -0.49073,0.5569 -0.73609,1.39774 -0.73608,2.52253"
           style=""
           id="path2919" />
        <path
           d="m 665.6004,293.20715 0,-8.78336 1.33984,0 0,1.24886 c 0.6451,-0.96489 1.57692,-1.44735 2.79546,-1.44735 0.52931,0 1.01452,0.0965 1.45562,0.28947 0.4466,0.18747 0.78018,0.43559 1.00074,0.74435 0.22054,0.30878 0.37493,0.67544 0.46315,1.09999 0.0551,0.27569 0.0827,0.75814 0.0827,1.44735 l 0,5.40069 -1.48871,0 0,-5.3428 c 0,-0.6065 -0.0579,-1.05862 -0.17368,-1.35637 -0.11579,-0.30325 -0.32256,-0.5431 -0.62029,-0.71954 -0.29224,-0.18195 -0.63684,-0.27292 -1.03383,-0.27293 -0.63408,10e-6 -1.18269,0.20126 -1.64584,0.60375 -0.45764,0.40251 -0.68646,1.16616 -0.68646,2.29095 l 0,4.79694 -1.48871,0"
           style=""
           id="path2921" />
        <path
           d="m 675.45067,293.20715 0,-1.69547 1.69547,0 0,1.69547 -1.69547,0"
           style=""
           id="path2923" />
      </g>
      <path
         style="fill:#1793d1;fill-opacity:1;fill-rule:evenodd;stroke:none;stroke-width:1;stroke-linecap:round;stroke-linejoin:round;stroke-miterlimit:10;stroke-dasharray:none;stroke-opacity:1"
         d="M 105.8125,16.625 C 98.41563,34.760158 93.954196,46.622682 85.71875,64.21875 C 90.76811,69.57107 96.965961,75.804114 107.03125,82.84375 C 96.210077,78.390904 88.828713,73.920352 83.3125,69.28125 C 72.7727,91.274163 56.259864,122.60209 22.75,182.8125 C 49.087628,167.60733 69.504089,158.23318 88.53125,154.65625 C 87.714216,151.1422 87.2497,147.34107 87.28125,143.375 L 87.3125,142.53125 C 87.730417,125.65743 96.508165,112.68146 106.90625,113.5625 C 117.30434,114.44354 125.38666,128.84492 124.96875,145.71875 C 124.89011,148.89387 124.53201,151.9483 123.90625,154.78125 C 142.72683,158.46289 162.92498,167.81304 188.90625,182.8125 C 183.78325,173.3807 179.21053,164.87862 174.84375,156.78125 C 167.96536,151.45004 160.79086,144.51145 146.15625,137 C 156.21524,139.61375 163.41735,142.62932 169.03125,146 C 124.63297,63.338161 121.03766,52.354109 105.8125,16.625 z "
         transform="matrix(1.1433333,0,0,1.1433333,22.920168,121.64318)"
         id="path2518" />
      <text
         id="text2634"
         y="263.83624"
         x="683.27826"
         style="font-size:8.44138241px;font-style:normal;font-weight:normal;fill:#87cdde;fill-opacity:1;stroke:none;stroke-width:1px;stroke-linecap:butt;stroke-linejoin:miter;stroke-opacity:1;font-family:DejaVu Sans Mono"
         xml:space="preserve"><tspan
           y="263.83624"
           x="683.27826"
           id="tspan2636"
           sodipodi:role="line">TM</tspan></text>
      <text
         id="text2638"
         y="313.69965"
         x="237.70116"
         style="font-size:8.25130367px;font-style:normal;font-weight:normal;fill:#87cdde;fill-opacity:1;stroke:none;stroke-width:1px;stroke-linecap:butt;stroke-linejoin:miter;stroke-opacity:1;font-family:DejaVu Sans Mono"
         xml:space="preserve"><tspan
           y="313.69965"
           x="237.70116"
           id="tspan2640"
           sodipodi:role="line">TM</tspan></text>
    </g>
  </g>
</svg>
